<svg viewBox="160 410 700 190" fill="none" xmlns="http://www.w3.org/2000/svg">
<path d="M571.289 466.242C596.854 466.151 625.504 475.157 626.629 504.95C627.649 531.91 626.549 559.215 626.974 586.225C626.999 587.785 626.469 589.51 625.884 590.945C622.604 594.495 604.514 592.795 599.199 593.005C592.554 593.27 593.519 583.06 593.439 578.42C587.619 584.82 582.694 589.365 574.424 592.505C562.399 597.07 546.224 598.175 534.339 592.685C524.719 588.245 520.319 581.93 516.794 572.365C514.289 563.39 514.304 553.24 517.379 544.41C523.879 525.755 544.614 521.53 562.004 520.06C569.444 519.225 577.014 519.415 583.989 516.39C591.699 513.045 594.544 504.065 590.749 496.768C585.449 486.582 567.664 486.687 558.744 491.597C552.714 494.916 551.704 501.885 550.324 508.035C544.724 508.04 524.029 509.405 520.884 507.355C517.339 500.76 523.364 485.72 528.514 480.451C539.574 469.138 556.274 466.672 571.289 466.242ZM554.759 571.065C559.169 573.7 561.389 574.3 566.324 574.38C588.129 574.75 594.204 555.7 593.549 537.59C593.494 536.145 594.024 531.925 592.604 531.38C588.409 533.685 585.349 535.115 580.754 536.275C569.529 539.11 553.584 539.065 549.944 552.865C548.029 560.13 549.529 565.845 554.759 571.065Z" fill="white"/>
<path d="M787.706 466.211C818.776 465.106 844.796 480.346 850.336 512.43C851.261 517.805 853.086 533.68 850.071 538.035C849.101 538.8 848.516 538.985 847.286 539.01C819.566 539.63 791.561 538.385 763.866 539.15C764.421 544.76 765.071 549.33 766.541 554.775C772.566 577.065 805.296 580.765 818.336 563.11C819.796 561.13 821.051 558.385 822.171 556.145C828.101 555.625 836.626 555.855 842.781 555.865C844.981 555.86 848.101 555.435 849.511 557.17C849.936 563.24 844.741 573.115 840.891 577.765C818.826 604.42 760.551 603.67 740.856 574.6C724.621 550.635 724.831 506.775 744.786 484.543C756.386 471.623 770.896 467.129 787.706 466.211ZM764.421 519.31C774.571 519.42 784.726 519.44 794.876 519.375C802.086 519.375 809.806 519.53 816.946 518.96C815.236 499.522 808.896 486.699 786.491 489.121C770.016 492.409 765.581 504.255 764.421 519.31Z" fill="white"/>
<path d="M387.296 466.217C411.294 464.642 440.871 471.839 442.747 500.585C442.882 502.65 443.009 503.145 441.664 504.76C437.509 506.24 419.227 505.67 414.263 505.2C413.423 501.21 412.15 495.465 409.067 492.7C403.271 486.211 380.53 485.507 375.611 493.316C366.049 508.495 385.716 513.445 395.29 515.225C410.155 517.99 424.782 521.085 436.03 530.565C442.84 536.305 445.884 545.1 446.183 553.635C447.487 586.04 423.938 595.77 395.625 596.945C370.282 597.405 341.929 589.75 340.619 560.315C340.537 558.46 340.456 557.885 341.674 556.545C346.587 554.91 363.52 555.48 369.357 555.76C370.381 560.79 370.971 564.8 374.862 569.015C384.484 579.435 415.243 578.95 415.016 560.55C414.942 557.53 412.769 553.645 410.167 552.05C398.82 545.095 383.828 544.43 371.225 540.575C354.695 535.66 343.158 526.31 342.322 507.925C341.024 479.381 361.104 467.626 387.296 466.217Z" fill="white"/>
<path d="M673.031 430.228C678.821 430.139 684.611 430.183 690.396 430.361C691.376 438.823 690.526 458.432 690.611 468.069C695.281 468.17 715.081 467.322 719.246 469.147C721.206 470.004 721.361 486.207 719.466 489.187C716.146 490.665 696.586 490.054 690.951 490.185C690.741 501.54 689.446 556 691.866 562.965C696.321 575.77 713.686 566.375 719.511 569.335C721.786 572.62 720.646 585.27 720.446 589.78C719.211 590.695 718.051 591.315 716.721 592.075C709.421 594.275 701.866 595.52 694.241 595.765C652.691 597.01 656.031 565.63 656.036 535.465L656.051 490.142C637.521 489.276 636.656 493.501 638.531 471.647C642.261 469.992 646.411 468.89 650.271 467.064C660.291 462.334 667.246 452.862 668.761 441.883C669.186 438.878 669.251 434.963 670.286 432.086C670.856 430.5 671.581 430.639 673.031 430.228Z" fill="white"/>
<path d="M181.315 467.721C193.849 467.599 282.968 466.425 288.717 468.362C289.8 468.727 290.409 470.308 290.767 471.304C291.483 473.3 291.792 475.474 291.936 477.58C292.329 483.334 292.881 518.34 290.929 521.22C288.92 524.185 282.86 523.75 279.796 523.845L217.049 523.875C209.002 523.91 177.777 525.1 172.272 522.195C167.787 516.14 171.579 491.547 170.109 483.138C169.511 479.716 169.776 472.625 172.365 470.028C174.986 467.399 177.827 467.795 181.315 467.721Z" fill="white"/>
<path d="M466.152 416.093C470.931 415.831 493.606 415.433 497.013 416.922C498.596 423.593 498.035 444.855 498.033 452.85L498.008 519.1L498 564.32C497.997 571.92 498.083 579.81 497.862 587.41C497.787 589.99 497.387 590.845 495.622 592.33C490.348 593.26 468.788 594.145 464.772 591.275C463.683 587.005 463.971 571.34 463.969 566.03L463.94 523.945L463.898 455.788C463.888 443.843 463.764 431.75 463.982 419.805C464.018 417.847 464.733 417.366 466.152 416.093Z" fill="white"/>
<path d="M174.633 536.115C188.077 535.54 207.637 535.96 220.773 536.635C228.391 537.03 224.3 581.755 224.29 588.875C224.289 590.26 221.513 591.67 220.431 592.1C208.307 593.08 195.078 592.075 182.848 592.49C180.624 592.565 175.569 592.295 173.597 591.59C169.446 590.115 170.025 576.76 170.105 573.53C170.384 562.315 169.562 551.68 170.65 540.59C170.852 538.515 173.108 537.045 174.633 536.115Z" fill="white"/>
<path d="M242.975 536.155C250.151 535.915 284.943 534.915 289.281 537.16C290.302 537.69 290.755 538.905 291.067 539.97C292.502 544.865 293.033 586.62 290.929 589.54C289.8 591.105 288.447 591.66 286.627 592.045C278.123 592.345 247.811 593.7 241.572 591.63C240.273 591.2 239.008 590.63 238.419 589.325C236.669 585.44 236.253 541.78 238.156 538.675C239.231 536.925 241.123 536.525 242.975 536.155Z" fill="white"/>
</svg>
