<svg width="1024" height="1024" viewBox="0 0 1024 1024" fill="none" xmlns="http://www.w3.org/2000/svg">
<path d="M319.403 270.794C367.908 270.322 712.806 265.78 735.053 273.273C739.246 274.684 741.603 280.796 742.986 284.65C745.757 292.367 746.953 300.776 747.51 308.921C749.033 331.171 751.17 466.548 743.615 477.686C735.838 489.152 712.386 487.47 700.528 487.837L457.693 487.954C426.551 488.089 305.708 492.691 284.404 481.457C267.046 458.041 281.724 362.932 276.035 330.415C273.72 317.179 274.744 289.757 284.764 279.715C294.907 269.548 305.902 271.08 319.403 270.794Z" fill="white"/>
<path d="M292.862 536.046C345.071 533.825 421.033 535.447 472.047 538.054C501.631 539.58 485.744 712.323 485.707 739.823C485.701 745.172 474.922 750.618 470.72 752.279C423.635 756.064 372.262 752.183 324.765 753.785C316.13 754.075 296.497 753.032 288.84 750.309C272.72 744.613 274.968 693.031 275.279 680.556C276.363 637.239 273.168 596.163 277.396 553.33C278.18 545.316 286.939 539.638 292.862 536.046Z" fill="white"/>
<path d="M557.542 536.656C585.381 535.731 720.348 531.873 737.175 540.533C741.135 542.577 742.895 547.264 744.103 551.372C749.672 570.255 751.73 731.324 743.568 742.588C739.19 748.625 733.939 750.765 726.879 752.251C693.892 753.408 576.302 758.635 552.101 750.65C547.062 748.991 542.155 746.792 539.87 741.758C533.081 726.772 531.468 558.355 538.848 546.377C543.018 539.627 550.36 538.084 557.542 536.656Z" fill="white"/>
</svg>
